Coordinates
version=1
nRows=11
nColumns=63
inDegrees=yes

Units are S.I. units (second, meters, Newtons, ...)
If the header above contains a line with 'inDegrees', this indicates whether rotational values are in degrees (yes) or radians (no).

endheader
time	pelvis_tilt	pelvis_list	pelvis_rotation	pelvis_tx	pelvis_ty	pelvis_tz	hip_flexion_r	hip_adduction_r	hip_rotation_r	knee_angle_r	knee_angle_r_beta	ankle_angle_r	subtalar_angle_r	mtp_angle_r	hip_flexion_l	hip_adduction_l	hip_rotation_l	knee_angle_l	knee_angle_l_beta	ankle_angle_l	subtalar_angle_l	mtp_angle_l	L5_S1_Flex_Ext	L5_S1_Lat_Bending	L5_S1_axial_rotation	L4_L5_Flex_Ext	L4_L5_Lat_Bending	L4_L5_axial_rotation	L3_L4_Flex_Ext	L3_L4_Lat_Bending	L3_L4_axial_rotation	L2_L3_Flex_Ext	L2_L3_Lat_Bending	L2_L3_axial_rotation	L1_L2_Flex_Ext	L1_L2_Lat_Bending	L1_L2_axial_rotation	L1_T12_Flex_Ext	L1_T12_Lat_Bending	L1_T12_axial_rotation	Abs_r3	Abs_r2	Abs_r1	Abs_t1	Abs_t2	neck_flexion	neck_bending	neck_rotation	arm_flex_r	arm_add_r	arm_rot_r	elbow_flex_r	pro_sup_r	wrist_flex_r	wrist_dev_r	arm_flex_l	arm_add_l	arm_rot_l	elbow_flex_l	pro_sup_l	wrist_flex_l	wrist_dev_l
0.000000	0.674993	-4.783113	101.671827	0.124223	0.876084	0.730287	3.245837	-1.180782	-25.802982	9.897471	0.172743	27.614822	18.882847	0.000000	9.266307	0.668478	11.075566	18.264917	0.318783	23.793511	-9.886993	0.000000	0.083500	0.397849	0.095307	0.155068	0.529140	0.101264	0.137183	0.967331	0.101264	0.095432	0.967331	0.083394	0.077538	0.811294	0.077437	0.047712	0.616269	0.071480	0.596434	4.500552	0.530069	0.000000	0.000000	25.609751	3.023640	-6.246398	11.941477	-7.495229	69.054574	35.556860	47.891988	2.996327	25.817417	22.191179	-6.254883	77.533817	41.981401	88.674486	13.767017	13.038602
0.016949	0.478849	-4.737366	100.684675	0.124800	0.875946	0.727868	3.110510	-1.302432	-24.222909	9.963296	0.173892	27.922434	18.829120	0.000000	8.780118	0.851064	11.318912	17.485005	0.305171	24.624367	-10.764200	0.000000	0.093563	0.392169	0.124187	0.173756	0.521585	0.131949	0.153715	0.953520	0.131949	0.106933	0.953520	0.108664	0.086883	0.799711	0.100902	0.053462	0.607470	0.093140	0.668312	4.436295	0.690692	0.000000	0.000000	25.829246	3.349371	-5.301930	12.145742	-7.227215	71.863433	34.027395	46.401926	2.918156	23.749701	20.455758	-6.231398	73.193567	41.759363	88.571808	13.211835	12.301257
0.033898	0.307424	-4.679686	99.801278	0.125461	0.875923	0.725885	2.989539	-1.410633	-22.862592	10.027715	0.175017	28.143614	18.780744	0.000000	8.346104	0.991041	11.392375	16.852687	0.294135	25.181529	-11.553187	0.000000	0.099654	0.383178	0.185363	0.185068	0.509627	0.196948	0.163722	0.931659	0.196948	0.113895	0.931659	0.162193	0.092539	0.781377	0.150607	0.056942	0.593543	0.139022	0.711821	4.334587	1.030933	0.000000	0.000000	26.005664	3.678125	-4.668805	12.252972	-7.071137	73.370264	33.024004	45.225203	2.629499	22.388573	19.421454	-6.141204	70.300119	41.545773	88.518713	12.932656	11.815695
0.050847	0.158602	-4.611852	99.020500	0.126186	0.876000	0.724295	2.880797	-1.506329	-21.709048	10.089548	0.176096	28.288477	18.737421	0.000000	7.961271	1.092928	11.317640	16.355189	0.285452	25.496708	-12.253426	0.000000	0.102196	0.371297	0.273011	0.189788	0.493825	0.290074	0.167898	0.902772	0.290074	0.116800	0.902772	0.238884	0.094899	0.757149	0.221821	0.058395	0.575140	0.204758	0.729976	4.200189	1.518403	0.000000	0.000000	26.139925	4.001540	-4.310253	12.273917	-7.011768	73.704200	32.490096	44.330845	2.160810	21.640512	19.002080	-5.990506	68.665339	41.340726	88.507519	12.878530	11.549788
0.067797	0.030265	-4.535645	98.341207	0.126956	0.876160	0.723058	2.782156	-1.590463	-20.749292	10.147612	0.177109	28.367137	18.698851	0.000000	7.622624	1.161243	11.116392	15.979735	0.278899	25.601615	-12.864392	0.000000	0.101610	0.356948	0.381307	0.188701	0.474741	0.405139	0.166936	0.867883	0.405139	0.116130	0.867883	0.333644	0.094355	0.727888	0.309812	0.058060	0.552913	0.285981	0.725792	4.037868	2.120718	0.000000	0.000000	26.232950	4.311253	-4.189499	12.219330	-7.033881	72.994376	32.369079	43.687880	1.542542	21.411994	19.111450	-5.785510	68.101092	41.144316	88.530543	12.998508	11.471408
0.084746	-0.079702	-4.452843	97.762264	0.127752	0.876388	0.722132	2.691487	-1.663977	-19.970341	10.200725	0.178036	28.389709	18.664735	0.000000	7.327169	1.200507	10.810318	15.713554	0.274253	25.527963	-13.385559	0.000000	0.098319	0.340551	0.504430	0.182589	0.452933	0.535957	0.161529	0.828017	0.535957	0.112369	0.828017	0.441376	0.091299	0.694452	0.409850	0.056180	0.527514	0.378323	0.702285	3.852385	2.805489	0.000000	0.000000	26.285660	4.598902	-4.269773	12.099961	-7.122249	71.369927	32.604361	43.265335	0.805149	21.609497	19.663376	-5.532422	68.419246	40.956638	88.580101	13.241640	11.548426
0.101695	-0.173417	-4.365228	97.282537	0.128555	0.876666	0.721477	2.606662	-1.727814	-19.359211	10.247706	0.178856	28.366308	18.634774	0.000000	7.071910	1.215238	10.421103	15.543869	0.271292	25.307464	-13.816401	0.000000	0.092745	0.322528	0.636556	0.172237	0.428963	0.676340	0.152371	0.784196	0.676340	0.105999	0.784196	0.556986	0.086123	0.657700	0.517201	0.052995	0.499597	0.477417	0.662470	3.648506	3.540331	0.000000	0.000000	26.298975	4.856126	-4.514302	11.926560	-7.261644	68.959986	33.139350	43.032236	-0.020916	22.139498	20.571672	-5.237448	69.431665	40.777787	88.648512	13.556976	11.748714
0.118644	-0.252997	-4.274577	96.900890	0.129345	0.876980	0.721050	2.525554	-1.782918	-18.902917	10.287372	0.179549	28.307048	18.608669	0.000000	6.853853	1.209956	9.970433	15.457909	0.269791	24.971827	-14.156392	0.000000	0.085310	0.303300	0.771860	0.158429	0.403389	0.820102	0.140156	0.737445	0.820102	0.097501	0.737445	0.675378	0.079219	0.618490	0.627137	0.048746	0.469812	0.578895	0.609362	3.430994	4.292856	0.000000	0.000000	26.273816	5.074562	-4.886313	11.709880	-7.436839	65.893688	33.917454	42.957610	-0.905199	22.908474	21.750151	-4.906793	70.950215	40.607856	88.728092	13.893566	12.040144
0.135593	-0.320558	-4.182672	96.616188	0.130104	0.877313	0.720812	2.446034	-1.830230	-18.588476	10.318542	0.180093	28.222045	18.586121	0.000000	6.670003	1.189180	9.479992	15.442898	0.269529	24.552767	-14.405006	0.000000	0.076436	0.283288	0.904522	0.141949	0.376773	0.961054	0.125577	0.688787	0.961054	0.087359	0.688787	0.791457	0.070979	0.577681	0.734924	0.043676	0.438814	0.678391	0.545975	3.204614	5.030679	0.000000	0.000000	26.211104	5.245848	-5.349035	11.460670	-7.632608	62.300167	34.882083	43.010484	-1.817248	23.822902	23.112625	-4.546663	72.786762	40.446942	88.811159	14.200462	12.390588
0.152542	-0.378216	-4.091291	96.427298	0.130813	0.877649	0.720720	2.365973	-1.870695	-18.402903	10.340034	0.180468	28.121412	18.566831	0.000000	6.517366	1.157430	8.971468	15.486063	0.270283	24.081993	-14.561717	0.000000	0.066545	0.262913	1.028716	0.123581	0.349675	1.093011	0.109327	0.639247	1.093011	0.076055	0.639247	0.900127	0.061794	0.536133	0.835832	0.038024	0.407253	0.771537	0.475326	2.974128	5.721411	0.000000	0.000000	26.111760	5.361622	-5.865695	11.189683	-7.833723	58.308559	35.976643	43.159886	-2.726608	24.789260	24.572908	-4.163263	74.753171	40.295138	88.890029	14.426713	12.767919
0.169492	-0.428090	-4.002214	96.333084	0.131451	0.877973	0.720733	2.283245	-1.905255	-18.333214	10.350666	0.180653	28.015265	18.550499	0.000000	6.392946	1.119224	8.466544	15.574630	0.271829	23.591219	-14.625999	0.000000	0.056060	0.242597	1.138621	0.104109	0.322653	1.209785	0.092101	0.589849	1.209785	0.064071	0.589849	0.996293	0.052057	0.494703	0.925129	0.032033	0.375782	0.853966	0.400430	2.744301	6.332668	0.000000	0.000000	25.976704	5.413522	-6.399521	10.907668	-8.024957	54.047997	37.144543	43.374841	-3.602826	25.714026	26.044812	-3.762800	76.661309	40.152540	88.957021	14.521369	13.140006
